<svg xmlns="http://www.w3.org/2000/svg" viewBox="0 0 520 200" role="img" aria-label="laTuno lockup safe area">
  <!-- Grid: SAFE 50 | logo height 100 | SAFE 50. Composicion: la + mark G + uno -->
  <rect width="520" height="200" fill="#0a0a0a"/>
  <g transform="translate(50 50)" fill="#2558a8">
    <text
      x="0"
      y="78"
      font-family="Inter, Arial, Helvetica, sans-serif"
      font-size="72"
      font-weight="700"
      letter-spacing="-1.5"
    >la</text>
    <svg x="78" y="0" width="100" height="100" viewBox="0 0 100 100" aria-hidden="true">
      <g fill="#2558a8">
        <rect x="8" y="15" width="84" height="10" rx="1"/>
        <path d="M9 31 L46 31 A1 1 0 0 1 47 32 L47 83 A1 1 0 0 1 46 84 L37 84 A1 1 0 0 1 36 83 L36 41 L9 41 A1 1 0 0 1 8 40 L8 32 A1 1 0 0 1 9 31 Z"/>
        <path d="M91 31 L54 31 A1 1 0 0 0 53 32 L53 83 A1 1 0 0 0 54 84 L63 84 A1 1 0 0 0 64 83 L64 41 L91 41 A1 1 0 0 0 92 40 L92 32 A1 1 0 0 0 91 31 Z"/>
      </g>
    </svg>
    <text
      x="184"
      y="78"
      font-family="Inter, Arial, Helvetica, sans-serif"
      font-size="72"
      font-weight="700"
      letter-spacing="-1.5"
    >uno</text>
  </g>
</svg>
